/* XPM */
static char * filter_xpm[] = {
"23 18 9 1",
" 	c None",
".	c #000000",
"+	c #EF8426",
"@	c #DD6C02",
"#	c #EA7917",
"$	c #FFC18C",
"%	c #FCB679",
"&	c #F4AB6B",
"*	c #F9953E",
"    ..     .           ",
"    .+.   .@.          ",
".....+#.  .@.          ",
".$%&*+#@. .@.          ",
".$%&*+#@. .@.          ",
".....+#.  .@.     ..   ",
"    .+.   .@.     .+.  ",
"    ..    .@. .....+#. ",
"          .@. .$%&*+#@.",
"          .@. .$%&*+#@.",
"    ..    .@. .....+#. ",
"    .+.   .@.     .+.  ",
".....+#.  .@.     ..   ",
".$%&*+#@. .@.          ",
".$%&*+#@. .@.          ",
".....+#.  .@.          ",
"    .+.   .@.          ",
"    ..     .           "};
