/* XPM */
static char * graph_xpm[] = {
"16 16 5 1",
" 	c None",
".	c #000000",
"+	c #FFFFFF",
"@	c #0800FF",
"#	c #FF0000",
"................",
".++++++++++++++.",
".++++++++++@+++.",
".+++++++++@+@++.",
"..........@.@...",
".+++++++++@+@+@.",
".++++@+#++@++@+.",
".#++@+@+#@+++++.",
".#..@.@..@......",
".+#@+#@++@+++++.",
".++@#++@@#+++++.",
".+@++++++#+++++.",
"..@......#......",
".+@+++++++#++++.",
".@+++++++++####.",
"................"};
