/* XPM */
static char * mail_forward_xpm[] = {
"16 16 79 1",
" 	c None",
".	c #2A2A2A",
"+	c #AAAAAA",
"@	c #A2A2A2",
"#	c #949494",
"$	c #E4E4E4",
"%	c #F6F6F6",
"&	c #F7F7F7",
"*	c #F8F8F8",
"=	c #E5E5E5",
"-	c #898989",
";	c #7A7A7A",
">	c #DADADA",
",	c #F5F5F5",
"'	c #818181",
")	c #B1B1B1",
"!	c #858585",
"~	c #EDEDED",
"{	c #8E8E8E",
"]	c #E1E1E1",
"^	c #E2E2E2",
"/	c #7F7F7F",
"(	c #B7B7B7",
"_	c #E0E0E0",
":	c #BEBEBE",
"<	c #737373",
"[	c #848484",
"}	c #E8E8E8",
"|	c #D5D5D5",
"1	c #9C9C9C",
"2	c #C9C9C9",
"3	c #919191",
"4	c #B4B4B4",
"5	c #AFAFAF",
"6	c #363636",
"7	c #CECECE",
"8	c #D9D9D9",
"9	c #A9A9A9",
"0	c #EBEBEB",
"a	c #F1F1F1",
"b	c #D7D7D7",
"c	c #C7C7C7",
"d	c #E9E9E9",
"e	c #F3F3F3",
"f	c #1A222A",
"g	c #4C555D",
"h	c #8B8B8B",
"i	c #A5A5A5",
"j	c #D3D3D3",
"k	c #8F8F8F",
"l	c #2D3135",
"m	c #43494F",
"n	c #5D6E7D",
"o	c #85ABCD",
"p	c #212121",
"q	c #3F3F3F",
"r	c #86929E",
"s	c #A5C4E0",
"t	c #9EBFDE",
"u	c #93B8DA",
"v	c #7596B5",
"w	c #212C36",
"x	c #6F7F8D",
"y	c #789EC0",
"z	c #6A91B3",
"A	c #0B1621",
"B	c #4F6272",
"C	c #416A8C",
"D	c #355D82",
"E	c #405668",
"F	c #386084",
"G	c #3B6487",
"H	c #2E5172",
"I	c #0B141C",
"J	c #0D1A27",
"K	c #1C3347",
"L	c #335B80",
"M	c #08111A",
"N	c #000000",
"                ",
" .++++++++++.   ",
" @#$%&**%&=-;   ",
" +>#,,,,,,')!   ",
" +*~{],,^/(_!   ",
" +*,:<,,;[]}!   ",
" +%|123-4567!   ",
" +890abcdefg!   ",
" hijbbklmmnof   ",
" pqqqq.rsstuvw  ",
"       xyyyyyzA ",
"       BCCCCCDA ",
"       EFFGCHA  ",
"       IJJKLA   ",
"          MA    ",
"          N     "};
