/* XPM */
static char * mail_reply_all16_xpm[] = {
"16 16 97 2",
"  	c None",
". 	c #181818",
"+ 	c #848484",
"@ 	c #AAAAAA",
"# 	c #5E5E5E",
"$ 	c #515151",
"% 	c #A7A7A7",
"& 	c #CFCFCF",
"* 	c #F6F6F6",
"= 	c #F8F8F8",
"- 	c #A3A3A3",
"; 	c #9E9E9E",
"> 	c #000000",
", 	c #555555",
"' 	c #F5F5F5",
") 	c #A1A1A1",
"! 	c #D0D0D0",
"~ 	c #A6A6A6",
"{ 	c #9B9B9B",
"] 	c #C8C8C8",
"^ 	c #121212",
"/ 	c #FBFBFB",
"( 	c #F1F1F1",
"_ 	c #CCCCCC",
": 	c #8E8E8E",
"< 	c #DDDDDD",
"[ 	c #D1D1D1",
"} 	c #3D3D3D",
"| 	c #676767",
"1 	c #CDCDCD",
"2 	c #ABABAB",
"3 	c #727272",
"4 	c #C3C3C3",
"5 	c #ECECEC",
"6 	c #434343",
"7 	c #FAFAFA",
"8 	c #DADADA",
"9 	c #363636",
"0 	c #C2C2C2",
"a 	c #959595",
"b 	c #939393",
"c 	c #BFBFBF",
"d 	c #A8A8A8",
"e 	c #6D625B",
"f 	c #372B24",
"g 	c #B1B1B1",
"h 	c #BEBEBE",
"i 	c #B6B6B6",
"j 	c #393939",
"k 	c #706661",
"l 	c #F6B893",
"m 	c #88634D",
"n 	c #534339",
"o 	c #2C211A",
"p 	c #626262",
"q 	c #BCBCBC",
"r 	c #D7D7D7",
"s 	c #C0C0C0",
"t 	c #9F9F9F",
"u 	c #372E28",
"v 	c #DBA585",
"w 	c #F4A677",
"x 	c #F5AD82",
"y 	c #F5B189",
"z 	c #72503C",
"A 	c #1A1A1A",
"B 	c #353535",
"C 	c #3F3F3F",
"D 	c #2B2B2B",
"E 	c #424242",
"F 	c #2B1E15",
"G 	c #DC976F",
"H 	c #DA8A5B",
"I 	c #583725",
"J 	c #848383",
"K 	c #9A9A9A",
"L 	c #989797",
"M 	c #373737",
"N 	c #984816",
"O 	c #A75223",
"P 	c #43210E",
"Q 	c #191919",
"R 	c #3E3E3E",
"S 	c #353434",
"T 	c #141414",
"U 	c #261102",
"V 	c #853F12",
"W 	c #A55123",
"X 	c #9C4C20",
"Y 	c #984B20",
"Z 	c #42200E",
"` 	c #853E12",
" .	c #4A240E",
"..	c #291408",
"+.	c #160A04",
"@.	c #1F0E01",
"#.	c #180B01",
"                                ",
"    . + @ @ @ @ @ @ @ @ @ #     ",
"    $ % & * = = * * = = - ; >   ",
"    , ' ) ! ' ' ' ' ' ~ { ] ^ . ",
"    , / ( ; _ ' ' ' ; : < [ } } ",
"    , / ' ( | 1 ' 2 3 4 5 [ 6 6 ",
"    , 7 8 9 0 a - b c d 5 [ 6 6 ",
"    , 7 e f g ] { h ( 8 i [ 6 6 ",
"    j k l m n n o p q r s t 6 6 ",
"    u v w x y y z A B C C D 3 E ",
"  F G H H H H H I j J K K K L M ",
"  F N O O O O O P Q B R R R S T ",
"    U V W X Y Y Z               ",
"      U `  .....+.              ",
"        @.#.                    ",
"          >                     "};
