/* XPM */
static char * mail_write_xpm[] = {
"24 24 55 1",
" 	c None",
".	c #000000",
"+	c #D1AF61",
"@	c #F1E3AC",
"#	c #FBA90F",
"$	c #B5B5B5",
"%	c #A06B09",
"&	c #816000",
"*	c #E6C370",
"=	c #F1D387",
"-	c #D58F0C",
";	c #B3B3B3",
">	c #F1D07E",
",	c #7D7D7D",
"'	c #535353",
")	c #FFFFFF",
"!	c #878786",
"~	c #EEEEEE",
"{	c #4F4F4F",
"]	c #F5F5F5",
"^	c #FBFBFB",
"/	c #AEAEAE",
"(	c #7B5307",
"_	c #E4E4E4",
":	c #434343",
"<	c #F1D284",
"[	c #CA870B",
"}	c #9E9E9C",
"|	c #C8C8C8",
"1	c #CCCCCC",
"2	c #AAAAAA",
"3	c #D4D4D4",
"4	c #979796",
"5	c #3E3E3E",
"6	c #A6A6A5",
"7	c #BA7C0A",
"8	c #7A5B00",
"9	c #6A6A6A",
"0	c #F2E6B6",
"a	c #7B7B7B",
"b	c #704B05",
"c	c #676764",
"d	c #636363",
"e	c #B9B9B9",
"f	c #DBD5C1",
"g	c #7E6F57",
"h	c #755800",
"i	c #C6C6C6",
"j	c #0E0E0E",
"k	c #8D8D8B",
"l	c #7C7C7C",
"m	c #737373",
"n	c #898987",
"o	c #5B5B5B",
"p	c #BCBCBC",
"                        ",
"                  ...   ",
"                  +@#.  ",
"                $%@#&.  ",
"                .*=-.   ",
"               ;%@#&.   ",
"               .*>-.    ",
"   ...........,%@#&.    ",
"  .')))))))))).*>-.!.   ",
"  .~{]^))))))/(@#&./.   ",
"  .)_:])))))).*<[.}|.   ",
"  .)]_{1))))2%@#&.3|.   ",
"  .)^]_:1))).*<[.4_|.   ",
"  .)]]]_5_)67##8.__|.   ",
"  .)^]]]9:_.0ab.c]_|.   ",
"  .)]]]dee{.fgh.i]_|.   ",
"  .)^]di]_3j'..kl__|.   ",
"  .)]m3]]]]..n]]]l_|.   ",
"  .)l3_____o______l|.   ",
"  .mpppppppppppppppd.   ",
"   .................    ",
"                        ",
"                        ",
"                        "};
