/* XPM */
static char * mail_xpm[] = {
"24 24 34 1",
" 	c None",
".	c #000000",
"+	c #535353",
"@	c #FFFFFF",
"#	c #D5D5D5",
"$	c #EEEEEE",
"%	c #4F4F4F",
"&	c #F5F5F5",
"*	c #FBFBFB",
"=	c #CCCCCC",
"-	c #AEAEAE",
";	c #E4E4E4",
">	c #434343",
",	c #414141",
"'	c #ACACAC",
")	c #C8C8C8",
"!	c #2B2B2B",
"~	c #858585",
"{	c #D4D4D4",
"]	c #B3B3B3",
"^	c #7C7C7C",
"/	c #B1B1B1",
"(	c #3E3E3E",
"_	c #DFDFDF",
":	c #4D4D4D",
"<	c #818181",
"[	c #C6C6C6",
"}	c #6A6A6A",
"|	c #A0A0A0",
"1	c #636363",
"2	c #B9B9B9",
"3	c #959595",
"4	c #737373",
"5	c #BCBCBC",
"                        ",
"                        ",
"                        ",
"                        ",
"                        ",
"   .................    ",
"  .+@@@@@@@@@@@@@#@+.   ",
"  .$%&*@@@@@@@@@@=%-.   ",
"  .@;>&@@@@@@@@@@,').   ",
"  .@&;%=@@@@@@@@!~{).   ",
"  .@*&;>=@@@@@],^/;).   ",
"  .@&&&;(;@@@_:<[;;).   ",
"  .@*&&&}>;&;%}|;&;).   ",
"  .@&&&122%;%3[4[&;).   ",
"  .@*&1[&;{%'[;&^;;).   ",
"  .@&4{&&&&;;&&&&^;).   ",
"  .@^{;;;;;;;;;;;;^).   ",
"  .45555555555555551.   ",
"   .................    ",
"                        ",
"                        ",
"                        ",
"                        ",
"                        "};
