/* XPM */
static char * mail16_xpm[] = {
"16 16 50 1",
" 	c None",
".	c #000000",
"+	c #9B9B9B",
"@	c #E9E9E9",
"#	c #FEFEFE",
"$	c #FFFFFF",
"%	c #E1E1E1",
"&	c #A9A9A9",
"*	c #262626",
"=	c #E2E2E2",
"-	c #909090",
";	c #FAFAFA",
">	c #9F9F9F",
",	c #9E9E9E",
"'	c #404040",
")	c #FCFCFC",
"!	c #EEEEEE",
"~	c #8B8B8B",
"{	c #D3D3D3",
"]	c #979797",
"^	c #7A7A7A",
"/	c #D4D4D4",
"(	c #434343",
"_	c #F6F6F6",
":	c #DADADA",
"<	c #838383",
"[	c #F3F3F3",
"}	c #F8F8F8",
"|	c #989898",
"1	c #828282",
"2	c #C6C6C6",
"3	c #DBDBDB",
"4	c #FDFDFD",
"5	c #E5E5E5",
"6	c #9A9A9A",
"7	c #999999",
"8	c #7D7D7D",
"9	c #ECECEC",
"0	c #CDCDCD",
"a	c #8E8E8E",
"b	c #CECECE",
"c	c #B8B8B8",
"d	c #A6A6A6",
"e	c #EFEFEF",
"f	c #E8E8E8",
"g	c #BABABA",
"h	c #C4C4C4",
"i	c #A3A3A3",
"j	c #C9C9C9",
"k	c #2C2C2C",
"                ",
"                ",
"                ",
"  ...........   ",
" .+@#$$$$$$%&*  ",
" .=-;$$$$$$>,'  ",
" .)!~{$$$!]^/(  ",
" .)_:<[$}|123(  ",
" .4_561378&93(  ",
" .4_702a+bc03(  ",
" .!d%eeffeegh(  ",
" .igjjjjjjjj+k  ",
"  ...........   ",
"                ",
"                ",
"                "};
