/* XPM */
static char * mark_xpm[] = {
"16 16 7 1",
" 	c None",
".	c #000000",
"+	c #FF0000",
"@	c #E90000",
"#	c #FE0000",
"$	c #9C0000",
"%	c #860000",
"                ",
"                ",
"      ...       ",
"     .++@.      ",
"     .+#$.      ",
"     .+#$.      ",
"     .+#$.      ",
"     .+#$.      ",
"     .@$%.      ",
"      ...       ",
"                ",
"      ...       ",
"     .++@.      ",
"     .@$%.      ",
"      ...       ",
"                "};
