/* XPM */
static char * mcard_xpm[] = {
"16 16 87 1",
" 	c None",
".	c #000000",
"+	c #1A1A1A",
"@	c #2A2A29",
"#	c #2E2E2E",
"$	c #4C4C4B",
"%	c #7F7F7D",
"&	c #828280",
"*	c #151414",
"=	c #434342",
"-	c #70706F",
";	c #818180",
">	c #A0A09F",
",	c #B4B4B1",
"'	c #BBBBB8",
")	c #D5D4D0",
"!	c #EBEAE5",
"~	c #B2B2AE",
"{	c #323130",
"]	c #292929",
"^	c #9E9E9B",
"/	c #CCCBC6",
"(	c #646360",
"_	c #5A5956",
":	c #AFAEAA",
"<	c #E1E0DC",
"[	c #E2E1DD",
"}	c #C3C2BD",
"|	c #C0BFBB",
"1	c #61615E",
"2	c #111111",
"3	c #757573",
"4	c #B6B5B1",
"5	c #4B4A48",
"6	c #4B4B48",
"7	c #A1A09C",
"8	c #B7B6B1",
"9	c #A5A4A0",
"0	c #CAC9C4",
"a	c #888883",
"b	c #212120",
"c	c #4F4F4E",
"d	c #DDDCD8",
"e	c #7E7E7A",
"f	c #7F7E7B",
"g	c #C9C8C3",
"h	c #E8E7E1",
"i	c #EEEDE8",
"j	c #E2E1DC",
"k	c #C3C2BE",
"l	c #B9B7B3",
"m	c #2F2E2D",
"n	c #1B1B1B",
"o	c #B0B0AC",
"p	c #E4E3DE",
"q	c #EDECE7",
"r	c #ECEBE5",
"s	c #D2D1CB",
"t	c #969591",
"u	c #B9B8B3",
"v	c #BBBAB6",
"w	c #BCBBB7",
"x	c #5D5D59",
"y	c #858482",
"z	c #E1DFDB",
"A	c #E0DFDA",
"B	c #9C9B96",
"C	c #BEBDB8",
"D	c #D3D2CA",
"E	c #AEADA7",
"F	c #73726E",
"G	c #53524F",
"H	c #20201F",
"I	c #464644",
"J	c #B9B8B4",
"K	c #C2C1BC",
"L	c #ACABA6",
"M	c #898884",
"N	c #434240",
"O	c #262625",
"P	c #141414",
"Q	c #191817",
"R	c #6F6F6C",
"S	c #4D4C4A",
"T	c #1D1D1C",
"U	c #0F0E0E",
"V	c #1E1E1D",
"                ",
"                ",
"                ",
"          ..    ",
"      +@#$%&.   ",
"  *=-;>,')!~{   ",
"  ]^/(_:<[}|1   ",
"  234567890/ab  ",
"   cdefghijklm  ",
"   nopqrstuvwx  ",
"   .yzABCDEFGH  ",
"    IJKLMNOP    ",
"    QRST.       ",
"    UV          ",
"                ",
"                "};
