/* XPM */
static char * move_xpm[] = {
"17 18 45 1",
" 	c None",
".	c #494949",
"+	c #4C4C4C",
"@	c #565656",
"#	c #606060",
"$	c #919191",
"%	c #636363",
"&	c #363636",
"*	c #3C3C3C",
"=	c #AFAFAF",
"-	c #EEEEEE",
";	c #FEFEFE",
">	c #FFFFFF",
",	c #F5F5F5",
"'	c #909090",
")	c #282828",
"!	c #4B4B4B",
"~	c #DEDEDE",
"{	c #ACACAC",
"]	c #F9F9F9",
"^	c #EFEFEF",
"/	c #C3C3C3",
"(	c #B3B3B3",
"_	c #333333",
":	c #E4E4E4",
"<	c #CECECE",
"[	c #B7B7B7",
"}	c #8C8C8C",
"|	c #BBBBBB",
"1	c #B5B5B5",
"2	c #323232",
"3	c #DFDFDF",
"4	c #A6A6A6",
"5	c #989898",
"6	c #939393",
"7	c #A4A4A4",
"8	c #393939",
"9	c #9F9F9F",
"0	c #BDBDBD",
"a	c #BABABA",
"b	c #A7A7A7",
"c	c #797979",
"d	c #292929",
"e	c #313131",
"f	c #000000",
"                 ",
"  .+@#$%&        ",
" *=-;>>,')       ",
" !~{];^/(_       ",
" !:<[:}|12       ",
" !34/5[67_       ",
" 890|a|bc)       ",
"  deeeee)        ",
"                 ",
"  f              ",
" fff    # ## #   ",
"  f    ##    ##  ",
"  f              ",
"  f f  #      #  ",
"  ffff           ",
"    f  ##    ##  ",
"        # ## #   ",
"                 "};
