/* XPM */
static char * next16_xpm[] = {
"11 12 53 1",
" 	c None",
".	c #2C2C2C",
"+	c #23291B",
"@	c #1F2418",
"#	c #62695A",
"$	c #76895C",
"%	c #090C06",
"&	c #0C0C0B",
"*	c #353732",
"=	c #32362E",
"-	c #32362F",
";	c #82897A",
">	c #BECFAD",
",	c #79905B",
"'	c #192010",
")	c #2F312D",
"!	c #CFDCC3",
"~	c #BFD0AE",
"{	c #C0D1B0",
"]	c #BFD0AF",
"^	c #B8CBA5",
"/	c #B1C69D",
"(	c #74895A",
"_	c #232B16",
":	c #313230",
"<	c #D6E1CC",
"[	c #C2D2B2",
"}	c #C1D2B1",
"|	c #B6C9A3",
"1	c #798E5D",
"2	c #171D0F",
"3	c #23271D",
"4	c #8FA66E",
"5	c #74904B",
"6	c #718C49",
"7	c #506433",
"8	c #10140A",
"9	c #859D60",
"0	c #73904A",
"a	c #718D49",
"b	c #4D6032",
"c	c #181E0F",
"d	c #070805",
"e	c #1F2615",
"f	c #1D2413",
"g	c #485A2F",
"h	c #516534",
"i	c #12160B",
"j	c #364223",
"k	c #495C2F",
"l	c #060804",
"m	c #14190D",
"n	c #000000",
"     .     ",
"     +@    ",
"     #$%   ",
"&*==-;>,'  ",
")!~~{]^/(_ ",
":<[{}[{{|12",
"34555555678",
"@955505abc ",
"defffg5hi  ",
"     jkl   ",
"     mi    ",
"     n     "};
