/* XPM */
static char * prev16_xpm[] = {
"11 12 53 1",
" 	c None",
".	c #000000",
"+	c #30322D",
"@	c #353833",
"#	c #131312",
"$	c #AEB6A7",
"%	c #586050",
"&	c #333432",
"*	c #C2CAB9",
"=	c #B3C6A0",
"-	c #717B67",
";	c #373935",
">	c #30342D",
",	c #090A08",
"'	c #474846",
")	c #AFB8A6",
"!	c #BACCA8",
"~	c #B8CBA5",
"{	c #C3D3B3",
"]	c #CAD8BC",
"^	c #AFBEA0",
"/	c #21251E",
"(	c #2E2F2D",
"_	c #BEC5B7",
":	c #C5D4B5",
"<	c #C5D5B5",
"[	c #C4D4B4",
"}	c #C5D4B6",
"|	c #A5B496",
"1	c #1E211B",
"2	c #13170C",
"3	c #586D38",
"4	c #728E4A",
"5	c #74904B",
"6	c #637C40",
"7	c #1C2312",
"8	c #546936",
"9	c #6A8545",
"0	c #667F42",
"a	c #667E42",
"b	c #5C723B",
"c	c #12160C",
"d	c #151A0D",
"e	c #5A703A",
"f	c #6D8846",
"g	c #394725",
"h	c #161C0E",
"i	c #161B0E",
"j	c #040503",
"k	c #080905",
"l	c #4B5E30",
"m	c #2C361C",
"n	c #13180C",
"     .     ",
"    +@     ",
"   #$%     ",
"  &*=-;;;>,",
" ')!~{]]]^/",
"(_]::<<[}|1",
"23455555562",
" 784490aabc",
"  defghiidj",
"   klm     ",
"    ni     ",
"     .     "};
