/* XPM */
static char * print16_xpm[] = {
"16 16 114 2",
"  	c None",
". 	c #8B8B8B",
"+ 	c #AAAAAA",
"@ 	c #000000",
"# 	c #F2F2F2",
"$ 	c #DFDFDF",
"% 	c #EFEFEF",
"& 	c #F7F7F7",
"* 	c #FFFFFF",
"= 	c #F9F9F9",
"- 	c #E3E3E3",
"; 	c #A8A8A8",
"> 	c #D7D7D7",
", 	c #C3C3C3",
"' 	c #CCCCCC",
") 	c #D8D8D8",
"! 	c #B7B7B7",
"~ 	c #E4E4E4",
"{ 	c #ABABAB",
"] 	c #BDBDBD",
"^ 	c #D9D9D9",
"/ 	c #D0D0D0",
"( 	c #E8E8E8",
"_ 	c #D6D6D6",
": 	c #E2E2E2",
"< 	c #DEDEDE",
"[ 	c #E1E1E1",
"} 	c #EBEBEB",
"| 	c #494949",
"1 	c #393939",
"2 	c #CACACA",
"3 	c #BABABA",
"4 	c #C6C6C6",
"5 	c #C2C2C2",
"6 	c #C5C5C5",
"7 	c #CECECE",
"8 	c #1E1D1C",
"9 	c #272623",
"0 	c #F9F9F7",
"a 	c #C6C4C0",
"b 	c #7A7977",
"c 	c #555555",
"d 	c #8E8D89",
"e 	c #B7B5B1",
"f 	c #CDCBC6",
"g 	c #434241",
"h 	c #8F8E8D",
"i 	c #C5C4C3",
"j 	c #F5F5F4",
"k 	c #FBFBFB",
"l 	c #FBFBFA",
"m 	c #FAF9F8",
"n 	c #F7F7F5",
"o 	c #F6F5F3",
"p 	c #F0F0EF",
"q 	c #E0DFDD",
"r 	c #DBDBD9",
"s 	c #87847E",
"t 	c #6B6A69",
"u 	c #989796",
"v 	c #DAD9D8",
"w 	c #DAD9D9",
"x 	c #D3D3D3",
"y 	c #CFCFCE",
"z 	c #CFCFCD",
"A 	c #B9B8B4",
"B 	c #838281",
"C 	c #615F5A",
"D 	c #676765",
"E 	c #747472",
"F 	c #8C8B88",
"G 	c #878583",
"H 	c #858482",
"I 	c #858381",
"J 	c #84827F",
"K 	c #83827F",
"L 	c #817F7C",
"M 	c #767471",
"N 	c #706F6D",
"O 	c #565550",
"P 	c #5E5D5B",
"Q 	c #94928E",
"R 	c #807D77",
"S 	c #716E68",
"T 	c #6B6863",
"U 	c #63615C",
"V 	c #62605B",
"W 	c #595652",
"X 	c #5C5A55",
"Y 	c #63625E",
"Z 	c #6B6A65",
"` 	c #4C4B47",
" .	c #242322",
"..	c #323230",
"+.	c #31302E",
"@.	c #2A2A27",
"#.	c #292826",
"$.	c #272624",
"%.	c #252523",
"&.	c #201F1E",
"*.	c #22211F",
"=.	c #242422",
"-.	c #272625",
";.	c #1E1E1C",
">.	c #65635E",
",.	c #787672",
"'.	c #7F7E79",
").	c #7E7D78",
"!.	c #76746F",
"~.	c #74726D",
"{.	c #716F6A",
"].	c #686661",
"^.	c #62605A",
"/.	c #55534D",
"                                ",
"        . + + + + + + .         ",
"      @ # $ % & * * * = @       ",
"      @ # $ % & * * * = @       ",
"      @ - ; > , ' ) ! = @       ",
"      @ ~ { ] ^ & / % = @       ",
"      @ ( _ : < [ : ( } @       ",
"    | 1 2 3 4 5 6 4 ' 7 8 9     ",
"  | 0 a b c c c c c c d e f g   ",
"  h i j k l m l l n o p q r s   ",
"  t u v w ^ x x _ _ y z A B C   ",
"  D E F G H H I J K L L M N O   ",
"  P Q R S T U U V W X C Y Z `   ",
"   ...+.@.#.$.$.%.&.*.=.%.-.;.  ",
"    >.,.'.'.'.).!.~.{.].^./.    ",
"                                "};
