/* XPM */
static char * read_xpm[] = {
"17 18 74 1",
" 	c None",
".	c #8B8B8B",
"+	c #F6F6F6",
"@	c #AFAFAF",
"#	c #8A8A8A",
"$	c #E0E0E0",
"%	c #929292",
"&	c #787878",
"*	c #FEFEFE",
"=	c #FFFFFF",
"-	c #D1D1D1",
";	c #808080",
">	c #F0F0F0",
",	c #F7F7F7",
"'	c #DCDCDC",
")	c #D8D8D8",
"!	c #717171",
"~	c #A2A2A2",
"{	c #9C9C9C",
"]	c #E9E9E9",
"^	c #EAEAEA",
"/	c #E7E7E7",
"(	c #EBEBEB",
"_	c #8F8F8F",
":	c #1A1A1A",
"<	c #000000",
"[	c #9F9F9F",
"}	c #FBFBFB",
"|	c #E8E8E8",
"1	c #F1F1F1",
"2	c #DFDFDF",
"3	c #E6E6E6",
"4	c #FCFCFC",
"5	c #F5F5F5",
"6	c #434343",
"7	c #9B9B9B",
"8	c #C9C9C9",
"9	c #C4C4C4",
"0	c #CFCFCF",
"a	c #595959",
"b	c #ABABAB",
"c	c #DEDEDE",
"d	c #878787",
"e	c #C0C0C0",
"f	c #B4B4B4",
"g	c #A9A9A9",
"h	c #D9D9D9",
"i	c #A4A4A4",
"j	c #DADADA",
"k	c #B5B5B5",
"l	c #B9B9B9",
"m	c #E1E1E1",
"n	c #797979",
"o	c #D4D4D4",
"p	c #858585",
"q	c #8D8D8D",
"r	c #A8A8A8",
"s	c #5E5E5E",
"t	c #737373",
"u	c #CECECE",
"v	c #7F7F7F",
"w	c #E3E3E3",
"x	c #6F6F6F",
"y	c #BBBBBB",
"z	c #818181",
"A	c #DDDDDD",
"B	c #E2E2E2",
"C	c #ECECEC",
"D	c #F2F2F2",
"E	c #BCBCBC",
"F	c #4D4D4D",
"G	c #BFBFBF",
"H	c #DBDBDB",
"I	c #474747",
"      .+         ",
"     @#$%        ",
"    &*==-;       ",
"   .>*$,')!      ",
" ~{>]^$/=$(_:<   ",
" [$,}|123>456<   ",
" 7>89*|0]$}ab<   ",
" <,cd*ef0=ghi<   ",
" <5jjkl>mnc,i<   ",
" <5ojpqrstu+i<   ",
" <5jvw>s(uxyi<   ",
" <5zA$(BCDEFb<   ",
" <sihGH)'2ebI<   ",
"  <<<<<<<<<<<    ",
"                 ",
"                 ",
"                 ",
"                 "};
