/* XPM */
static char * receive16_xpm[] = {
"16 16 95 2",
"  	c None",
". 	c #696C68",
"+ 	c #99A096",
"@ 	c #979D93",
"# 	c #6F7D64",
"$ 	c #596D4B",
"% 	c #000000",
"& 	c #9EA29C",
"* 	c #AECF9F",
"= 	c #B9D2AA",
"- 	c #679942",
"; 	c #5C883B",
"> 	c #454844",
", 	c #B6BCB3",
"' 	c #ADCE9E",
") 	c #689943",
"! 	c #5D893C",
"~ 	c #18230F",
"{ 	c #080C05",
"] 	c #676C65",
"^ 	c #BCCFB3",
"/ 	c #649441",
"( 	c #405F28",
"_ 	c #0E1509",
": 	c #2F2F2F",
"< 	c #555555",
"[ 	c #494949",
"} 	c #5D615B",
"| 	c #ACC8A0",
"1 	c #4C7231",
"2 	c #2A2A2A",
"3 	c #3C3C3C",
"4 	c #393939",
"5 	c #111111",
"6 	c #AAAAAA",
"7 	c #D3D3D3",
"8 	c #ECECEC",
"9 	c #999999",
"0 	c #5D655A",
"a 	c #B8CBAB",
"b 	c #4E7432",
"c 	c #3B4137",
"d 	c #979797",
"e 	c #C8C8C8",
"f 	c #838383",
"g 	c #303030",
"h 	c #F8F8F8",
"i 	c #9E9E9E",
"j 	c #D0D0D0",
"k 	c #EFEFEF",
"l 	c #909090",
"m 	c #5B5F58",
"n 	c #484848",
"o 	c #9C9C9C",
"p 	c #C9C9C9",
"q 	c #818181",
"r 	c #BEBEBE",
"s 	c #434343",
"t 	c #FDFDFD",
"u 	c #F3F3F3",
"v 	c #A1A1A1",
"w 	c #CDCDCD",
"x 	c #E6E6E6",
"y 	c #A2A2A2",
"z 	c #B9B9B9",
"A 	c #DDDDDD",
"B 	c #828282",
"C 	c #D7D7D7",
"D 	c #FCFCFC",
"E 	c #F6F6F6",
"F 	c #F1F1F1",
"G 	c #DCDCDC",
"H 	c #797979",
"I 	c #E1E1E1",
"J 	c #DBDBDB",
"K 	c #D5D5D5",
"L 	c #9B9B9B",
"M 	c #8E8E8E",
"N 	c #E9E9E9",
"O 	c #D9D9D9",
"P 	c #EBEBEB",
"Q 	c #A0A0A0",
"R 	c #C6C6C6",
"S 	c #E3E3E3",
"T 	c #DADADA",
"U 	c #B8B8B8",
"V 	c #AFAFAF",
"W 	c #E2E2E2",
"X 	c #EAEAEA",
"Y 	c #CFCFCF",
"Z 	c #ACACAC",
"` 	c #5D5D5D",
" .	c #7D7D7D",
"..	c #6A6A6A",
"+.	c #1C1C1C",
"                                ",
"          . + @ # $ %           ",
"          & * = - ; %           ",
"          & * = - ; %           ",
"      % > , ' = ) ! ~ {         ",
"        ] ^ ' = ) / ( _         ",
"    : < [ } | = - 1 2 3 4 5     ",
"  % 6 7 8 9 0 a b c d e f g     ",
"  % h i j k l m n o p q r s     ",
"  % t u v w x y z A B 6 C s     ",
"  % D E F q w k G H y I J s     ",
"  % D E K L M j f 9 o N J s     ",
"  % t O y P x Q R S T U J s     ",
"  % I V W X X x x X X Y Z s     ",
"    `  . . . . . . . . ...+.    ",
"                                "};
