/* XPM */
static char * send_receive_xpm[] = {
"16 16 29 1",
" 	c None",
".	c #000000",
"+	c #F7EFD0",
"@	c #CC900A",
"#	c #F7EFD1",
"$	c #EED680",
"%	c #D1940C",
"&	c #C38909",
"*	c #F6ECC9",
"=	c #D1BC70",
"-	c #AE7B0A",
";	c #916608",
">	c #F3E3A8",
",	c #C6B26A",
"'	c #D7E5D0",
")	c #B9C9B1",
"!	c #7D9A69",
"~	c #6F9059",
"{	c #AECCA1",
"]	c #669447",
"^	c #557C3B",
"/	c #DBE7D6",
"(	c #6E9952",
"_	c #65894C",
":	c #668154",
"<	c #E1EBDC",
"[	c #58833C",
"}	c #E0EADB",
"|	c #639144",
"    ..          ",
"   .+@.         ",
"  .#$%&.        ",
" .*=$%-;.       ",
"...>$%-...      ",
"  .>$%-.        ",
"  .>$%-.        ",
"  .$,--.......  ",
"  .......')!~.  ",
"        .'{]^.  ",
"        .'{]^.  ",
"      ...'{]^...",
"       ./'{(_:. ",
"        .<{][.  ",
"         .}|.   ",
"          ..    "};
