/* XPM */
static char * sendqueue_xpm[] = {
"24 24 219 2",
"  	c None",
". 	c #050505",
"+ 	c #494943",
"@ 	c #616058",
"# 	c #353531",
"$ 	c #000000",
"% 	c #A9A89B",
"& 	c #ECEAD5",
"* 	c #D1D0C0",
"= 	c #E5E4CF",
"- 	c #707068",
"; 	c #6B6B6B",
"> 	c #7D7D7D",
", 	c #606161",
"' 	c #5F5E5E",
") 	c #BFBFBC",
"! 	c #E3E3DF",
"~ 	c #ECECE8",
"{ 	c #9A9A90",
"] 	c #CFCEBE",
"^ 	c #EDEBD6",
"/ 	c #E8E6D1",
"( 	c #D7D6C2",
"_ 	c #C1C0AF",
": 	c #81817E",
"< 	c #E1E2E2",
"[ 	c #E5E6E6",
"} 	c #D3D4D4",
"| 	c #BEBFBF",
"1 	c #616060",
"2 	c #B5B5B4",
"3 	c #F8F8F6",
"4 	c #F7F7F5",
"5 	c #F6F6F3",
"6 	c #F5F5F2",
"7 	c #F4F4F0",
"8 	c #F3F3EF",
"9 	c #BEBDBA",
"0 	c #D3D2C0",
"a 	c #ECEBD5",
"b 	c #EBEAD4",
"c 	c #E4E3CD",
"d 	c #8E8D7F",
"e 	c #CCCBB5",
"f 	c #98988A",
"g 	c #C4C5C5",
"h 	c #E7E8E7",
"i 	c #E9EAE9",
"j 	c #E4E4E4",
"k 	c #EAEBEA",
"l 	c #C6C6C4",
"m 	c #7C7C7B",
"n 	c #525251",
"o 	c #DBDBD9",
"p 	c #F5F4F1",
"q 	c #F4F3F0",
"r 	c #F3F2EE",
"s 	c #F2F1ED",
"t 	c #ACABA5",
"u 	c #DEDCC8",
"v 	c #C8C7B2",
"w 	c #54544B",
"x 	c #C7C6B0",
"y 	c #A5A595",
"z 	c #848584",
"A 	c #AEAFAF",
"B 	c #B2B3B3",
"C 	c #CCCDCD",
"D 	c #D6D7D7",
"E 	c #838381",
"F 	c #D7D6D4",
"G 	c #A8A8A6",
"H 	c #515150",
"I 	c #7E7D7C",
"J 	c #DAD9D5",
"K 	c #F1F0EB",
"L 	c #AEADA4",
"M 	c #AAA999",
"N 	c #8D8C7E",
"O 	c #5C5B52",
"P 	c #6B6A5E",
"Q 	c #BAB9A5",
"R 	c #B3B29D",
"S 	c #61615E",
"T 	c #9EA0A0",
"U 	c #BFC1C0",
"V 	c #D1D2D2",
"W 	c #B1B1B1",
"X 	c #F6F5F2",
"Y 	c #F4F3EF",
"Z 	c #B5B4B1",
"` 	c #9B9A97",
" .	c #646361",
"..	c #92918E",
"+.	c #A2A298",
"@.	c #D6D5C2",
"#.	c #D9D8C2",
"$.	c #57574E",
"%.	c #040403",
"&.	c #868576",
"*.	c #B7B59F",
"=.	c #A4A391",
"-.	c #5D5D5A",
";.	c #A9ABAA",
">.	c #C9CBCA",
",.	c #909190",
"'.	c #D0D0CD",
").	c #F2F2ED",
"!.	c #F1F0EC",
"~.	c #F0EFEB",
"{.	c #BFBEBA",
"].	c #BEBDB9",
"^.	c #808077",
"/.	c #DAD9C3",
"(.	c #D1D0BA",
"_.	c #A5A492",
":.	c #2A2A25",
"<.	c #8F8E7C",
"[.	c #AEAC96",
"}.	c #A2A18B",
"|.	c #5D5E5A",
"1.	c #9EA09F",
"2.	c #B6B8B8",
"3.	c #BBBCBC",
"4.	c #A9A9A6",
"5.	c #F0EFEA",
"6.	c #EFEEE9",
"7.	c #626260",
"8.	c #EDECE6",
"9.	c #A7A69D",
"0.	c #C0BFAE",
"a.	c #C0BFA9",
"b.	c #B1B09A",
"c.	c #AEAD97",
"d.	c #A1A08C",
"e.	c #939280",
"f.	c #60615F",
"g.	c #949696",
"h.	c #ADAFAF",
"i.	c #EFEEE8",
"j.	c #BEBDB8",
"k.	c #989793",
"l.	c #ECEAE4",
"m.	c #A9A7A2",
"n.	c #BDBCA9",
"o.	c #BFBEA8",
"p.	c #A4A38D",
"q.	c #9D9C87",
"r.	c #807F6F",
"s.	c #666867",
"t.	c #8B8E8D",
"u.	c #A5A7A6",
"v.	c #717272",
"w.	c #EEECE7",
"x.	c #62615F",
"y.	c #EBEAE4",
"z.	c #EAE9E2",
"A.	c #D2D2CB",
"B.	c #8E8E7F",
"C.	c #A9A897",
"D.	c #ADAC96",
"E.	c #A5A48E",
"F.	c #9C9B86",
"G.	c #969583",
"H.	c #53534B",
"I.	c #717473",
"J.	c #848786",
"K.	c #999C9B",
"L.	c #555756",
"M.	c #B6B5B2",
"N.	c #BCBCB7",
"O.	c #979691",
"P.	c #E9E8E1",
"Q.	c #E8E7DF",
"R.	c #908F89",
"S.	c #9E9D8A",
"T.	c #969584",
"U.	c #767565",
"V.	c #0B0B0B",
"W.	c #5D605F",
"X.	c #7F8181",
"Y.	c #828484",
"Z.	c #ECEBE5",
"`.	c #E9E8E0",
" +	c #E8E6DF",
".+	c #CECDC7",
"++	c #92928D",
"@+	c #1C1C19",
"#+	c #706F60",
"$+	c #807F6E",
"%+	c #5D5D51",
"&+	c #0C0C0B",
"*+	c #505252",
"=+	c #5D5F5E",
"-+	c #797875",
";+	c #969590",
">+	c #CFCEC8",
",+	c #AEADA8",
"'+	c #242424",
")+	c #666058",
"!+	c #786F64",
"~+	c #585754",
"{+	c #7B7A76",
"]+	c #736A5B",
"^+	c #908570",
"/+	c #928875",
"(+	c #665C4E",
"_+	c #8C816F",
":+	c #9B907F",
"<+	c #0F0E0B",
"[+	c #AB9A87",
"}+	c #A8967F",
"|+	c #998873",
"1+	c #B6A38A",
"2+	c #8C7C69",
"3+	c #C8B298",
"4+	c #B7A38A",
"5+	c #DAC2A5",
"6+	c #B49E84",
"                                                ",
"                                                ",
"                          . + @ #               ",
"                $ $ $ $ . % & * = - ; > ,       ",
"      $ $ $ $ $ ' ) ! ~ { ] ^ / ( _ : < [ [ } | ",
"    $ 1 2 3 4 5 6 7 8 9 0 a b c d e f g h i j k ",
"    $ l m n o p q r s t * u c v w x y z A B C D ",
"    $ E F G H I J s K L b M N O P Q R S T U V W ",
"      $ X p Y Z `  ...+.@.#.$.%.&.*.=.-.;.U >.,.",
"      $ '.8 ).!.~.{.].^./.(._.:.<.[.}.|.1.2.3.  ",
"      $ 4.s !.5.6.7.8.9.0.x a.b.c.d.e.f.g.h.T   ",
"        $ K 5.i.j.k.l.m.n.o.*.c.p.q.r.s.t.u.v.  ",
"        $ ~.i.w.x.y.z.A.B.C.D.E.F.G.H.I.J.K.L.  ",
"        $ M.8.N.O.z.P.Q.R.S.p.T.F.U.V.W.X.Y.    ",
"          $ Z.S z.`. +.+++@+#+$+%+&+    *+=+    ",
"          $ -+;+>+,+$ $ $     '+)+!+$           ",
"          $ ~+{+$ $         $ ]+^+/+(+$         ",
"            $ $           $ $ $ _+:+$ <+$       ",
"                              $ [+}+$           ",
"                            $ |+1+1+2+$         ",
"                            $ 3+3+3+3+$         ",
"                          $ 4+5+5+5+5+6+$       ",
"                          $ $ $ $ $ $ $ $       ",
"                                                "};
