/* XPM */
static char * send16_xpm[] = {
"16 16 101 2",
"  	c None",
". 	c #454139",
"+ 	c #47443B",
"@ 	c #D5C59F",
"# 	c #654705",
"$ 	c #47443C",
"% 	c #F2E1A4",
"& 	c #ECD391",
"* 	c #D0930C",
"= 	c #704F06",
"- 	c #464339",
"; 	c #D7C994",
"> 	c #EED680",
", 	c #ECD493",
"' 	c #D1940C",
") 	c #CE920B",
"! 	c #5C4104",
"~ 	c #000000",
"{ 	c #928A6D",
"] 	c #B8A76B",
"^ 	c #ECD47E",
"/ 	c #ECD48E",
"( 	c #D19510",
"_ 	c #BA850E",
": 	c #614405",
"< 	c #201702",
"[ 	c #A29872",
"} 	c #ECD492",
"| 	c #BA830B",
"1 	c #2F2F2F",
"2 	c #555555",
"3 	c #393939",
"4 	c #A39B7C",
"5 	c #101010",
"6 	c #3F3F3F",
"7 	c #424242",
"8 	c #111111",
"9 	c #AAAAAA",
"0 	c #D3D3D3",
"a 	c #A8A8A8",
"b 	c #A09363",
"c 	c #D3BE71",
"d 	c #D0B879",
"e 	c #B27E0A",
"f 	c #2D2D2D",
"g 	c #B7B7B7",
"h 	c #8C8C8C",
"i 	c #303030",
"j 	c #F8F8F8",
"k 	c #9E9E9E",
"l 	c #959595",
"m 	c #3E3E3E",
"n 	c #313131",
"o 	c #2C2C2C",
"p 	c #2B2B2B",
"q 	c #282828",
"r 	c #5C5C5C",
"s 	c #BEBEBE",
"t 	c #434343",
"u 	c #FDFDFD",
"v 	c #F3F3F3",
"w 	c #9C9C9C",
"x 	c #B4B4B4",
"y 	c #A1A1A1",
"z 	c #595959",
"A 	c #8D8D8D",
"B 	c #D7D7D7",
"C 	c #FCFCFC",
"D 	c #F6F6F6",
"E 	c #F1F1F1",
"F 	c #818181",
"G 	c #C4C4C4",
"H 	c #E6E6E6",
"I 	c #D4D4D4",
"J 	c #747474",
"K 	c #A2A2A2",
"L 	c #E1E1E1",
"M 	c #DBDBDB",
"N 	c #D5D5D5",
"O 	c #9B9B9B",
"P 	c #8E8E8E",
"Q 	c #D0D0D0",
"R 	c #838383",
"S 	c #999999",
"T 	c #E9E9E9",
"U 	c #D9D9D9",
"V 	c #EBEBEB",
"W 	c #A0A0A0",
"X 	c #C6C6C6",
"Y 	c #E3E3E3",
"Z 	c #DADADA",
"` 	c #B8B8B8",
" .	c #AFAFAF",
"..	c #E2E2E2",
"+.	c #EAEAEA",
"@.	c #CFCFCF",
"#.	c #ACACAC",
"$.	c #5D5D5D",
"%.	c #7D7D7D",
"&.	c #6A6A6A",
"*.	c #1C1C1C",
"              .                 ",
"            + @ #               ",
"          $ % & * =             ",
"        - ; > , ' ) !           ",
"      ~ { ] ^ / ( _ : <         ",
"        ~ [ > } ' | ~           ",
"    1 2 3 4 > & ' | 5 6 7 8     ",
"  ~ 9 0 a b c d | e f g h i     ",
"  ~ j k l m n o p q m r s t     ",
"  ~ u v w a x 9 a y z A B t     ",
"  ~ C D E F G H I J K L M t     ",
"  ~ C D N O P Q R S w T M t     ",
"  ~ u U K V H W X Y Z ` M t     ",
"  ~ L  ...+.+.H H +.+.@.#.t     ",
"    $.%.%.%.%.%.%.%.%.%.&.*.    ",
"                                "};
