/* XPM */
static char * cronosII_xpm[] = {
"48 48 477 2",
"  	c None",
". 	c #FBFBFB",
"+ 	c #FFFFFF",
"@ 	c #FEFEFE",
"# 	c #FDFDFD",
"$ 	c #FAFAFA",
"% 	c #F5F5F5",
"& 	c #E1E1E1",
"* 	c #F2F2F2",
"= 	c #E8E8E8",
"- 	c #BBBABA",
"; 	c #9B9898",
"> 	c #8C8787",
", 	c #8C8585",
"' 	c #7D7474",
") 	c #909090",
"! 	c #B5B5B5",
"~ 	c #DDDDDD",
"{ 	c #BFBFBF",
"] 	c #DEDEDE",
"^ 	c #DBD6D6",
"/ 	c #BAB7B7",
"( 	c #C7C6C6",
"_ 	c #AA9090",
": 	c #8C5B5B",
"< 	c #815E5E",
"[ 	c #998484",
"} 	c #B3A3A3",
"| 	c #C4B4B4",
"1 	c #CCBEBE",
"2 	c #D3D0D0",
"3 	c #E7E6E6",
"4 	c #FEFDFD",
"5 	c #AFAFAF",
"6 	c #4F4F4F",
"7 	c #A7A2A2",
"8 	c #715F5F",
"9 	c #BFB8B8",
"0 	c #A98686",
"a 	c #7C4B4B",
"b 	c #AB8B8B",
"c 	c #888383",
"d 	c #6A6565",
"e 	c #676262",
"f 	c #605959",
"g 	c #564F4F",
"h 	c #554545",
"i 	c #AA7B7B",
"j 	c #C6C1C1",
"k 	c #E9E9E9",
"l 	c #FCFCFC",
"m 	c #969696",
"n 	c #4C4C4C",
"o 	c #F7F7F7",
"p 	c #9D9A9A",
"q 	c #847676",
"r 	c #CBC8C8",
"s 	c #5F4747",
"t 	c #786E6E",
"u 	c #8B8989",
"v 	c #575151",
"w 	c #797575",
"x 	c #8D8A8A",
"y 	c #817D7D",
"z 	c #797272",
"A 	c #A2A1A1",
"B 	c #9D9C9C",
"C 	c #7E2727",
"D 	c #995252",
"E 	c #E6E6E6",
"F 	c #F4F4F4",
"G 	c #7F7F7F",
"H 	c #4B4B4B",
"I 	c #C6C6C6",
"J 	c #D2D2D2",
"K 	c #908282",
"L 	c #B79D9D",
"M 	c #828181",
"N 	c #483C3C",
"O 	c #9D9D9D",
"P 	c #463E3E",
"Q 	c #716C6C",
"R 	c #B5B3B3",
"S 	c #BFBDBD",
"T 	c #939292",
"U 	c #686363",
"V 	c #766E6E",
"W 	c #B3B3B3",
"X 	c #9D6767",
"Y 	c #421818",
"Z 	c #F8F8F8",
"` 	c #6D6D6D",
" .	c #828282",
"..	c #AAAAAA",
"+.	c #BE9C9C",
"@.	c #AF8C8C",
"#.	c #3A3232",
"$.	c #625E5E",
"%.	c #6D6969",
"&.	c #706B6B",
"*.	c #918F8F",
"=.	c #BAB8B8",
"-.	c #818080",
";.	c #4C4444",
">.	c #A19B9B",
",.	c #CBBBBB",
"'.	c #5A3F3F",
").	c #706565",
"!.	c #D9D9D9",
"~.	c #5F5F5F",
"{.	c #4D4D4D",
"].	c #484848",
"^.	c #3C3C3C",
"/.	c #6A6A6A",
"(.	c #C2C2C2",
"_.	c #E4E4E4",
":.	c #A77F7F",
"<.	c #CBA4A4",
"[.	c #999696",
"}.	c #8D8C8C",
"|.	c #908E8E",
"1.	c #9D9B9B",
"2.	c #A29F9F",
"3.	c #9A9898",
"4.	c #686767",
"5.	c #544A4A",
"6.	c #A89A9A",
"7.	c #D0C1C1",
"8.	c #847979",
"9.	c #705B5B",
"0.	c #DFDFDF",
"a.	c #C5C5C5",
"b.	c #555555",
"c.	c #404040",
"d.	c #222222",
"e.	c #4A4A4A",
"f.	c #D0D0D0",
"g.	c #433E3E",
"h.	c #BBB7B7",
"i.	c #C2A6A6",
"j.	c #B69898",
"k.	c #9E8888",
"l.	c #897979",
"m.	c #756363",
"n.	c #704949",
"o.	c #824F4F",
"p.	c #9D8282",
"q.	c #CEC1C1",
"r.	c #CBC7C7",
"s.	c #8F8282",
"t.	c #8C7B7B",
"u.	c #D0CDCD",
"v.	c #AEAEAE",
"w.	c #444444",
"x.	c #100E0E",
"y.	c #424141",
"z.	c #EBE2E2",
"A.	c #B3A7A7",
"B.	c #7E7575",
"C.	c #574E4E",
"D.	c #574646",
"E.	c #6F5151",
"F.	c #8A6666",
"G.	c #B88A8A",
"H.	c #DCC0C0",
"I.	c #E1DFDF",
"J.	c #B4B4B4",
"K.	c #BAB2B2",
"L.	c #F8F4F4",
"M.	c #F9F9F9",
"N.	c #959595",
"O.	c #1B1A1A",
"P.	c #353232",
"Q.	c #464646",
"R.	c #474747",
"S.	c #C3C3C3",
"T.	c #F0F0F0",
"U.	c #E5E5E5",
"V.	c #D7D7D7",
"W.	c #D5D5D5",
"X.	c #7E7E7E",
"Y.	c #313131",
"Z.	c #232020",
"`.	c #393939",
" +	c #363434",
".+	c #353535",
"++	c #3F3F3F",
"@+	c #BEBEBE",
"#+	c #151212",
"$+	c #322F2F",
"%+	c #393333",
"&+	c #2E2525",
"*+	c #2D1313",
"=+	c #271919",
"-+	c #414141",
";+	c #C0C0C0",
">+	c #C1C1C1",
",+	c #C4C4C4",
"'+	c #C7C7C7",
")+	c #D3D3D3",
"!+	c #EFEFEF",
"~+	c #D8D8D8",
"{+	c #1D1818",
"]+	c #383232",
"^+	c #1E1C1C",
"/+	c #0E0B0B",
"(+	c #1C1717",
"_+	c #260B0B",
":+	c #191414",
"<+	c #BDBDBD",
"[+	c #151414",
"}+	c #312A2A",
"|+	c #282727",
"1+	c #141212",
"2+	c #2C2C2C",
"3+	c #2E2E2E",
"4+	c #160D0D",
"5+	c #393737",
"6+	c #B2B2B2",
"7+	c #454545",
"8+	c #150B0B",
"9+	c #343030",
"0+	c #161414",
"a+	c #282828",
"b+	c #1D1B1B",
"c+	c #2F2F2F",
"d+	c #262222",
"e+	c #2B2828",
"f+	c #9C9C9C",
"g+	c #9E9E9E",
"h+	c #494949",
"i+	c #2B2B2B",
"j+	c #272626",
"k+	c #6C6C6C",
"l+	c #8E8E8E",
"m+	c #363636",
"n+	c #291515",
"o+	c #181616",
"p+	c #201F1F",
"q+	c #1A1919",
"r+	c #232121",
"s+	c #1F1A1A",
"t+	c #B9B9B9",
"u+	c #898989",
"v+	c #ABABAB",
"w+	c #0E0C0C",
"x+	c #251818",
"y+	c #5C4F4F",
"z+	c #887D7D",
"A+	c #877A7A",
"B+	c #939090",
"C+	c #929292",
"D+	c #ACACAC",
"E+	c #2C2A2A",
"F+	c #311C1C",
"G+	c #222121",
"H+	c #1F1E1E",
"I+	c #343333",
"J+	c #232222",
"K+	c #1A1818",
"L+	c #363333",
"M+	c #2F2D2D",
"N+	c #BBBBBB",
"O+	c #BABABA",
"P+	c #9C9999",
"Q+	c #7C7979",
"R+	c #797979",
"S+	c #400D0D",
"T+	c #8A6E6E",
"U+	c #8F8080",
"V+	c #8F8383",
"W+	c #8F8B8B",
"X+	c #A7A7A7",
"Y+	c #343434",
"Z+	c #2D2525",
"`+	c #2C1F1F",
" @	c #202020",
".@	c #2C2B2B",
"+@	c #1A1616",
"@@	c #383636",
"#@	c #373434",
"$@	c #706C6C",
"%@	c #6D6666",
"&@	c #752828",
"*@	c #7B7878",
"=@	c #777676",
"-@	c #696666",
";@	c #766C6C",
">@	c #8B8080",
",@	c #969595",
"'@	c #BCBCBC",
")@	c #727272",
"!@	c #4B4A4A",
"~@	c #2F2E2E",
"{@	c #302525",
"]@	c #221D1D",
"^@	c #222020",
"/@	c #2A2929",
"(@	c #1D1717",
"_@	c #3B3A3A",
":@	c #3A3A3A",
"<@	c #B6B6B6",
"[@	c #8F8E8E",
"}@	c #514545",
"|@	c #9A8E8E",
"1@	c #4C2525",
"2@	c #737373",
"3@	c #3F3C3C",
"4@	c #1B1313",
"5@	c #262020",
"6@	c #2A1F1F",
"7@	c #6F5858",
"8@	c #928F8F",
"9@	c #8F8F8F",
"0@	c #434242",
"a@	c #2A2828",
"b@	c #362C2C",
"c@	c #1A1515",
"d@	c #292929",
"e@	c #131111",
"f@	c #3E3E3E",
"g@	c #B8B8B8",
"h@	c #B7B7B7",
"i@	c #5D5555",
"j@	c #888686",
"k@	c #3D2626",
"l@	c #6D6B6B",
"m@	c #2A2323",
"n@	c #6A6969",
"o@	c #686868",
"p@	c #433939",
"q@	c #653131",
"r@	c #928D8D",
"s@	c #262323",
"t@	c #413C3C",
"u@	c #0D0808",
"v@	c #301E1E",
"w@	c #ADADAD",
"x@	c #949393",
"y@	c #5D5656",
"z@	c #6D6464",
"A@	c #4C4848",
"B@	c #3D3A3A",
"C@	c #585656",
"D@	c #524D4D",
"E@	c #4D4848",
"F@	c #625F5F",
"G@	c #635757",
"H@	c #682626",
"I@	c #989696",
"J@	c #575757",
"K@	c #242323",
"L@	c #231E1E",
"M@	c #171515",
"N@	c #0B0808",
"O@	c #0F0D0D",
"P@	c #1A1A1A",
"Q@	c #2B2A2A",
"R@	c #1E1313",
"S@	c #373131",
"T@	c #A2A2A2",
"U@	c #726F6F",
"V@	c #7D7272",
"W@	c #3B3737",
"X@	c #5A5858",
"Y@	c #3C3737",
"Z@	c #727070",
"`@	c #737272",
" #	c #5A5757",
".#	c #705E5E",
"+#	c #552828",
"@#	c #ABAAAA",
"##	c #221E1E",
"$#	c #282525",
"%#	c #414040",
"&#	c #242424",
"*#	c #1D1D1D",
"=#	c #282323",
"-#	c #1C1111",
";#	c #686060",
">#	c #7D6D6D",
",#	c #363232",
"'#	c #524F4F",
")#	c #423D3D",
"!#	c #696868",
"~#	c #767474",
"{#	c #444141",
"]#	c #626060",
"^#	c #6C5151",
"/#	c #4B4040",
"(#	c #1D1C1C",
"_#	c #2E2A2A",
":#	c #302222",
"<#	c #2F2626",
"[#	c #2C2828",
"}#	c #312929",
"|#	c #261E1E",
"1#	c #8A8A8A",
"2#	c #939393",
"3#	c #706060",
"4#	c #6C5F5F",
"5#	c #332F2F",
"6#	c #484545",
"7#	c #676666",
"8#	c #7A7575",
"9#	c #423030",
"0#	c #827F7F",
"a#	c #1C1B1B",
"b#	c #2D2828",
"c#	c #372A2A",
"d#	c #342626",
"e#	c #353131",
"f#	c #7B7B7B",
"g#	c #8B8B8B",
"h#	c #796464",
"i#	c #5F5555",
"j#	c #413F3F",
"k#	c #565656",
"l#	c #3D3C3C",
"m#	c #5B5656",
"n#	c #796D6D",
"o#	c #382D2D",
"p#	c #595959",
"q#	c #393838",
"r#	c #151313",
"s#	c #B1B1B1",
"t#	c #757575",
"u#	c #7C7B7B",
"v#	c #857171",
"w#	c #726363",
"x#	c #666464",
"y#	c #706E6E",
"z#	c #3E3636",
"A#	c #897B7B",
"B#	c #504848",
"C#	c #7E7A7A",
"D#	c #373737",
"E#	c #383838",
"F#	c #434343",
"G#	c #3D3B3B",
"H#	c #565555",
"I#	c #817777",
"J#	c #786969",
"K#	c #5A5454",
"L#	c #484747",
"M#	c #3B3B3B",
"N#	c #402C2C",
"O#	c #877B7B",
"P#	c #605D5D",
"Q#	c #574A4A",
"R#	c #1F1F1F",
"S#	c #1B1B1B",
"T#	c #272727",
"U#	c #434141",
"V#	c #B0B0B0",
"W#	c #9F9A9A",
"X#	c #4C4545",
"Y#	c #333030",
"Z#	c #4A3B3B",
"`#	c #472929",
" $	c #460F0F",
".$	c #874D4D",
"+$	c #807E7E",
"@$	c #808080",
"#$	c #605454",
"$$	c #A9A9A9",
"%$	c #A4A1A1",
"&$	c #716B6B",
"*$	c #4E4646",
"=$	c #655A5A",
"-$	c #858383",
";$	c #807A7A",
">$	c #5A5A5A",
",$	c #7C7C7C",
"'$	c #979797",
")$	c #A8A8A8",
"!$	c #5C5C5C",
"                                                                                                ",
"                                                                                                ",
"                                                                                                ",
"                                                                                                ",
"                                                                                                ",
"                                                                                                ",
"                                                                                                ",
"                                      . + + @ # @                                               ",
"                                    @ + + + + + + + + + + + + # @ @                             ",
"                                $ + + + % & * = - ; > > , ' ) ! ~ @ + + + + {                   ",
"                              # + ] ^ / ( _ : < [ } | 1 2 3 4 + . @ + + @ 5 6                   ",
"                          . + @ 7 8 9 0 a b c d e f g h i j k + + + + l m n n                   ",
"                        # o + p q r s t u v w x y z A B C D E + + + F G n n n H                 ",
"                    . + I o J K L M N O P Q R S T U V W X Y Z + + k ` n n n n n                 ",
"                  # + +  .@ ..+.@.G #.$.%.&.*.=.-.;.>.,.'.).+ + !.~.{.].^.n n n                 ",
"              . + + + + /.(._.:.<.[.}.|.1.2.3.4.5.6.7.8.9.0.+ a.b.{.c.d.e.n n n                 ",
"            # + + + + + f.g.G h.i.j.k.l.m.n.o.p.q.r.s.t.u.@ v.6 {.w.x.y.n n n n                 ",
"        o + + + + + + + + z.A.B.C.D.E.F.G.H.I.] J.K.L.M.l N.{.{.H O.P.Q.R.n n n                 ",
"        S.J & T.l + + + + + + + + + @ @ $ U.V.W.@ + + F X.{.{.{.Y.Z.`. +.+++n n                 ",
"        @+(.(.S.I J & T.l + + + + + + . F @ + + + + = ` {.{.{.e.#+$+%+&+*+=+-+n H               ",
"          ;+>+(.(.S.,+,+'+)+& !+l + + + + + + + + ~+~.{.{.{.{.Y.{+]+^+/+(+_+:+H n               ",
"          <+;+;+>+(.(.S.S.,+,+a.'+)+& !+l + + + ,+b.{.{.{.n {.[+}+|+1+2+3+$+4+5+n               ",
"            @+{ ;+;+<+(.(.(.;+>+,+,+a.a.'+)+& 6+6 {.{.{.{.Q.7+8+9+0+a+b+b+c+d+e+n               ",
"            <+@+{ @+f+;+g+h+i+j+`.k+5 ,+,+a.a.l+{.{.{.{.{.c.m+n+i+o+p+d.q+r+$+s+n               ",
"            t+<+<+J.u+v+w+x+y+z+A+B+C+v+S.,+,+D+{.{.{.{.{.`.E+F+G+H+j+I+J+K+L+M+H               ",
"              N+O+P+Q+R+S+T+U+V+W+X+;+(.(.S.S.(.b.{.{.{.n Y+Z+`+^+ @I+2+.@+@@@#@n               ",
"              t+N+$@%@B.&@*@=@-@;@>@,@'@>+>+(.(.)@{.{.{.!@~@{@]@p+K+^@G+/@(@_@:@n n             ",
"              <@t+[@}@|@1@2@3@4@5@6@7@8@N+;+>+>+9@{.{.n 0@a@b@c@d@e@b+p+a+x+f@-+n n             ",
"                g@h@i@j@k@l@m@~.n@o@p@q@r@<+;+;+v+{.{.{.s@s@t@u@|+a+K+a+p+v@-+].n n             ",
"                ! w@x@y@z@A@B@C@D@E@F@G@H@I@@+{ @+J@{.{.K@L@y.M@N@O@P@Q@R@S@Q.n n H             ",
"                  5 T@U@V@W@X@Y@Z@`@A@ #.#+#@#@+@+2@{.{.`.##$#%#&#*#|+=#-#7+h+n n               ",
"                  J.O O ;#>#,#'#)#!#~#{#]#^#/#'@<+9@{.n H (#_#:#<#[#}#|#[#n n n                 ",
"                  6+J.1#2#3#4#5#6#t@o@7#W@8#9#0#'@..{.n n -+a#b#c#d#e##+h+n n                   ",
"                    W J.f#g#h#i#f@j#k#~#l#m#n#o#W O+p#H e.n R.m+q#^.r#0@n n e.                  ",
"                    s#6+W t#u#v#w#x#Z@y#7+z#A#B#C#O+2@n D#E#R.F#3+#+G#n n e.                    ",
"                    w@s#6+6+G H#I#J#K#L#M#N#O#P#Q#h@9@n n E#R#S#T#U#n n H                       ",
"                      V#s#s#6+W#X#Y#Z#`# $.$+$@$#$T@$${.n n n n n n n H                         ",
"                        v.5 s#s#6+%$&$*$=$-$) N.;$J.<@>$n n n n n n H                           ",
"                            D+5 s#s#6+6+V#V#J.,$$$<@<@t#n n n n n H                             ",
"                                  v.s#s#6+6+D+'$J.J.! 9@n n n n n                               ",
"                                      v.V#s#6+6+W W J.)${.n n n                                 ",
"                                            5 s#6+6+W W !$n n                                   ",
"                                                5 s#6+6+t#n e.                                  ",
"                                                      5 9@H                                     ",
"                                                                                                ",
"                                                                                                ",
"                                                                                                ",
"                                                                                                "};
