/* XPM */
static char * mark_xpm[] = {
"16 16 33 1",
" 	c None",
".	c #000000",
"+	c #202020",
"@	c #817968",
"#	c #F5F5F5",
"$	c #4D493C",
"%	c #736C5C",
"&	c #F5EEEE",
"*	c #FFCBCB",
"=	c #FAF3EC",
"-	c #F7B4B4",
";	c #60594D",
">	c #CE9C9C",
",	c #746D5D",
"'	c #F5F1F1",
")	c #F8F4ED",
"!	c #645F4F",
"~	c #C49797",
"{	c #71685A",
"]	c #FCF5EA",
"^	c #F2B3B3",
"º	c #90856F",
"(	c #7C7361",
"_	c #E0AAAA",
":	c #887F6B",
"<	c #FFBABA",
"[	c #726B59",
"}	c #CC9B9B",
"|	c #8B816C",
"1	c #FFBCBC",
"2	c #534D42",
"3	c #645F51",
"4	c #4C483D",
"                ",
"                ",
"                ",
"  .+.........   ",
" .@#########$.  ",
" .#%&*#*=*-;>.  ",
" .#*,'*)*-!-~.  ",
" .#**{]*-!*^~.  ",
" .#**º!#!(-_~.  ",
" .#*:-*!-<[}~.  ",
" .#|*^1^<^}2>.  ",
" .3~~~~~~~~>4.  ",
"  ...........   ",
"                ",
"                ",
"                "};
