/* XPM */
static char * mini_error_xpm[] = {
"14 13 144 2",
"  	c None",
". 	c #D66152",
"+ 	c #CF3723",
"@ 	c #C62714",
"# 	c #C22815",
"$ 	c #C34638",
"% 	c #C5766D",
"& 	c #D47A6E",
"* 	c #C23C2B",
"= 	c #B42413",
"- 	c #A82111",
"; 	c #A22112",
"> 	c #A42314",
", 	c #A72617",
"' 	c #AA2C1E",
") 	c #AF453A",
"! 	c #D47265",
"~ 	c #BE3220",
"{ 	c #AA2110",
"] 	c #A62213",
"^ 	c #A12314",
"/ 	c #A22415",
"( 	c #A4281A",
"_ 	c #A42A1D",
": 	c #A22A1D",
"< 	c #A7493F",
"[ 	c #C2341F",
"} 	c #AA2511",
"| 	c #A72714",
"1 	c #A72B19",
"2 	c #A82D1C",
"3 	c #A52B1A",
"4 	c #A12918",
"5 	c #A02A1A",
"6 	c #A32F1F",
"7 	c #A53122",
"8 	c #9F2E21",
"9 	c #9E4F46",
"0 	c #D35E4B",
"a 	c #BD4416",
"b 	c #B85216",
"c 	c #B85419",
"d 	c #B8551D",
"e 	c #BA5923",
"f 	c #B85A26",
"g 	c #B55624",
"h 	c #B05322",
"i 	c #AF5324",
"j 	c #B25728",
"k 	c #AD4C28",
"l 	c #97392B",
"m 	c #CF3C20",
"n 	c #CB721A",
"o 	c #D89B21",
"p 	c #D79B25",
"q 	c #D59B26",
"r 	c #D49B29",
"s 	c #D29B2F",
"t 	c #CF9931",
"u 	c #CD9631",
"v 	c #CB9532",
"w 	c #CA9433",
"x 	c #BD7931",
"y 	c #993C24",
"z 	c #70433E",
"A 	c #C73417",
"B 	c #CA781E",
"C 	c #DAA526",
"D 	c #D9A62B",
"E 	c #D7A52C",
"F 	c #D5A32D",
"G 	c #D29F2F",
"H 	c #CF9E32",
"I 	c #CF9E35",
"J 	c #CE9F38",
"K 	c #CC9E3A",
"L 	c #BE8035",
"M 	c #963D26",
"N 	c #421713",
"O 	c #BD422F",
"P 	c #B74E1C",
"Q 	c #BE651F",
"R 	c #BC6623",
"S 	c #BB6727",
"T 	c #BA6728",
"U 	c #B66427",
"V 	c #B36328",
"W 	c #B3642B",
"X 	c #B5662F",
"Y 	c #B56832",
"Z 	c #AD5930",
"` 	c #833022",
" .	c #341715",
"..	c #BA6E65",
"+.	c #A73120",
"@.	c #A52E1B",
"#.	c #A32F1C",
"$.	c #A1311F",
"%.	c #A23322",
"&.	c #A13322",
"*.	c #9D3222",
"=.	c #9C3324",
"-.	c #9E3426",
";.	c #A03629",
">.	c #963529",
",.	c #5E201B",
"'.	c #4E4241",
").	c #A34940",
"!.	c #9D271C",
"~.	c #A0291D",
"{.	c #9E2A1F",
"].	c #9E2D23",
"^.	c #9E2F25",
"/.	c #9C2E24",
"(.	c #9B2E25",
"_.	c #9A2F27",
":.	c #992F27",
"<.	c #71251E",
"[.	c #3B1D1B",
"}.	c #8B413B",
"|.	c #90271D",
"1.	c #9A2B1F",
"2.	c #9C2D23",
"3.	c #9B3027",
"4.	c #9A3128",
"5.	c #972F27",
"6.	c #892B24",
"7.	c #68211C",
"8.	c #3A1D1C",
"9.	c #635D5D",
"0.	c #73433E",
"a.	c #702A23",
"b.	c #75231C",
"c.	c #7A251E",
"d.	c #75251E",
"e.	c #611F1A",
"f.	c #471B18",
"g.	c #3F2B29",
"h.	c #6A6766",
"i.	c #574442",
"j.	c #28110F",
"k.	c #1C0807",
"l.	c #362A29",
"m.	c #666260",
"        . + @ # $ %         ",
"    & * = - ; > , ' )       ",
"  ! ~ { ] > ^ / ( _ : <     ",
"  [ } | 1 2 3 4 5 6 7 8 9   ",
"0 a b c d e f g h i j k l   ",
"m n o p q r s t u v w x y z ",
"A B C D E F G H I J K L M N ",
"O P Q R S T U V W X Y Z `  .",
"..+.@.#.$.%.&.*.=.-.;.>.,.'.",
"  ).!.~.{.].^./.(._.:.<.[.  ",
"    }.|.1.2.3.4.5.6.7.8.9.  ",
"      0.a.b.c.d.e.f.g.h.    ",
"          i.j.k.l.m.        "};
