/* XPM */
static char * new_xpm[] = {
"18 18 88 1",
" 	c None",
".	c #000000",
"+	c #20201D",
"@	c #40403A",
"#	c #2F2F2A",
"$	c #89897B",
"%	c #DCDCC5",
"&	c #98988A",
"*	c #3E3E37",
"=	c #7F7F72",
"-	c #CACAB6",
";	c #D8D8C2",
">	c #DCDCC4",
",	c #E0E0C8",
"'	c #7B7B6E",
")	c #171717",
"!	c #535353",
"~	c #AAAA99",
"{	c #D5D5BD",
"]	c #D6D6BF",
"^	c #DEDEC6",
"/	c #E2E2CA",
"(	c #DDDDC6",
"_	c #1D1D1D",
":	c #3A3A3A",
"<	c #A6A6A5",
"[	c #8C8C80",
"}	c #D2D2BC",
"|	c #D7D7C1",
"1	c #E7E7CF",
"2	c #EBEBD3",
"3	c #BDBDA9",
"4	c #141412",
"5	c #3B3B3A",
"6	c #EDEDE8",
"7	c #686865",
"8	c #B7B7A3",
"9	c #D7D7C0",
"0	c #E8E8D0",
"a	c #EBEBD2",
"b	c #EEEED5",
"c	c #65655B",
"d	c #3B3B39",
"e	c #B2B2AD",
"f	c #7B7B71",
"g	c #C6C6B0",
"h	c #E4E4CC",
"i	c #EFEFD6",
"j	c #F2F2D9",
"k	c #D5D5BF",
"l	c #2D2D29",
"m	c #070707",
"n	c #626258",
"o	c #C8C8B3",
"p	c #F1F1D8",
"q	c #F3F3DA",
"r	c #F4F4DB",
"s	c #D6D6C0",
"t	c #282824",
"u	c #222220",
"v	c #B0B0A1",
"w	c #DADAC3",
"x	c #DFDFC7",
"y	c #E9E9D0",
"z	c #818174",
"A	c #E6E6CE",
"B	c #EAEAD2",
"C	c #6B6B60",
"D	c #181815",
"E	c #50504A",
"F	c #D4D4BF",
"G	c #E9E9D1",
"H	c #ECECD4",
"I	c #CBCBB6",
"J	c #515149",
"K	c #131313",
"L	c #B8B8A6",
"M	c #ECECD3",
"N	c #949485",
"O	c #30302B",
"P	c #2C2C27",
"Q	c #DEDEC7",
"R	c #77776B",
"S	c #A5A594",
"T	c #ABAB99",
"U	c #2B2B26",
"V	c #1E1E1B",
"W	c #66665C",
"                  ",
"                  ",
"        .+@       ",
"       #$%&       ",
"    .*=-;>,'      ",
"   )!~{];^/(_     ",
"   :<[}|>/1234    ",
"   56789,0ab0c    ",
"   defg>haijjkl   ",
"   mno%/1bpqrrst  ",
"   uvwxhybjrrrrz. ",
"    z^/ABijrrrCD  ",
"    EFAGHpqrIJ    ",
"    KLBMijHNO     ",
"     PbipQR       ",
"     .SGTU        ",
"      VW4         ",
"                  "};
