/* XPM */
static char * queue_mbox_xpm[] = {
"16 16 90 1",
" 	c None",
".	c #020204",
"+	c #024A6C",
"@	c #99999B",
"#	c #FDFDFB",
"$	c #969698",
"%	c #656564",
"&	c #BEBDB3",
"*	c #B9B8AE",
"=	c #365E6D",
"-	c #16506B",
";	c #134F6B",
">	c #034767",
",	c #626263",
"'	c #636362",
")	c #ABABA0",
"!	c #E3E1CE",
"~	c #DDDCC8",
"{	c #B0B1A2",
"]	c #788387",
"^	c #C0C1C1",
"/	c #C2C3C3",
"(	c #B2B3B3",
"_	c #B4B4B4",
":	c #BDBDB7",
"<	c #DAD9C6",
"[	c #E8E7D1",
"}	c #BEBDAB",
"|	c #B9B8A5",
"1	c #A2A299",
"2	c #D1D2D2",
"3	c #E0E1E0",
"4	c #DFE0E0",
"5	c #E5E5E3",
"6	c #B6B6AC",
"7	c #D0CFBD",
"8	c #BBBAA7",
"9	c #807F72",
"0	c #A5A492",
"a	c #9C9B8E",
"b	c #929392",
"c	c #B8BABA",
"d	c #CBCCCC",
"e	c #B3B3A6",
"f	c #D3D2BE",
"g	c #6A6A5F",
"h	c #47463E",
"i	c #A7A693",
"j	c #939284",
"k	c #878887",
"l	c #BDBFBE",
"m	c #A5A7A6",
"n	c #A4A498",
"o	c #D0CFBA",
"p	c #A4A391",
"q	c #6F6F61",
"r	c #A5A48F",
"s	c #8B8B7B",
"t	c #818281",
"u	c #B0B2B2",
"v	c #717273",
"w	c #999891",
"x	c #C0BFAB",
"y	c #BAB9A3",
"z	c #ACAB95",
"A	c #A1A08B",
"B	c #7E7D71",
"C	c #7C7E7D",
"D	c #9FA1A1",
"E	c #464748",
"F	c #252523",
"G	c #9E9D8E",
"H	c #ABAA95",
"I	c #969582",
"J	c #62635C",
"K	c #7A7D7C",
"L	c #8F9291",
"M	c #1C1C1E",
"N	c #FFFFFF",
"O	c #292929",
"P	c #908F7D",
"Q	c #8D8C7A",
"R	c #807F74",
"S	c #747576",
"T	c #525454",
"U	c #5E6060",
"V	c #060607",
"W	c #999995",
"X	c #858582",
"Y	c #0B0B0C",
"                ",
"        .   ++++",
"      ..@.   +++",
"    ..@@@#. ++++",
"  ..@@@$%&*=-; >",
"..@@@@,')!~{]^/(",
".#.@,,_:<[}|1234",
".##.@_567890abcd",
".###.__efghijklm",
" .###._nopqrstuv",
"  .###.wxyzABCDE",
"   .###FGHAIJKLM",
"    .##NOPQRSTU ",
"     .#5VWXY.   ",
"      .#...     ",
"       ..       "};
